<mxfile host="65bd71144e">
    <diagram id="kfqbYSQvsbw34wrSjgwR" name="Page-1">
        <mxGraphModel dx="1174" dy="787" grid="1" gridSize="10" guides="1" tooltips="1" connect="1" arrows="1" fold="1" page="1" pageScale="1" pageWidth="850" pageHeight="1100" math="0" shadow="0">
            <root>
                <mxCell id="0"/>
                <mxCell id="1" parent="0"/>
                <mxCell id="131" value="" style="endArrow=none;html=1;rounded=0;endFill=0;startArrow=none;" edge="1" parent="1">
                    <mxGeometry width="50" height="50" relative="1" as="geometry">
                        <mxPoint x="40" y="400" as="sourcePoint"/>
                        <mxPoint x="760" y="400" as="targetPoint"/>
                    </mxGeometry>
                </mxCell>
                <UserObject label="Upload Shareable Data Package to Repository" link="#upload-your-shareable-data-package-to-your-repository" id="132">
                    <mxCell style="rounded=0;whiteSpace=wrap;html=1;fillColor=#532565;fontColor=#F0F0F0;fontStyle=1;glass=0;fontSize=13;strokeColor=#532565;" vertex="1" parent="1">
                        <mxGeometry x="640" y="368" width="124" height="63" as="geometry"/>
                    </mxCell>
                </UserObject>
                <UserObject label="Copy over files to share" link="#copy-files-that-meet-sharing-requirements-into-your-shareable-data-package-folder" id="133">
                    <mxCell style="rounded=0;whiteSpace=wrap;html=1;fillColor=#982568;fontColor=#0F0F0F;fontStyle=1;opacity=50;" vertex="1" parent="1">
                        <mxGeometry x="170" y="291" width="130" height="50" as="geometry"/>
                    </mxCell>
                </UserObject>
                <mxCell id="134" value="" style="endArrow=none;html=1;fontColor=#0F0F0F;rounded=0;" edge="1" parent="1">
                    <mxGeometry width="50" height="50" relative="1" as="geometry">
                        <mxPoint x="85" y="401" as="sourcePoint"/>
                        <mxPoint x="85" y="341" as="targetPoint"/>
                    </mxGeometry>
                </mxCell>
                <mxCell id="135" value="" style="endArrow=none;html=1;fontColor=#0F0F0F;rounded=0;" edge="1" parent="1">
                    <mxGeometry width="50" height="50" relative="1" as="geometry">
                        <mxPoint x="234.5" y="401" as="sourcePoint"/>
                        <mxPoint x="234.5" y="341" as="targetPoint"/>
                    </mxGeometry>
                </mxCell>
                <mxCell id="136" value="" style="endArrow=none;html=1;fontColor=#0F0F0F;rounded=0;" edge="1" parent="1">
                    <mxGeometry width="50" height="50" relative="1" as="geometry">
                        <mxPoint x="188" y="461" as="sourcePoint"/>
                        <mxPoint x="188" y="401" as="targetPoint"/>
                    </mxGeometry>
                </mxCell>
                <mxCell id="137" value="" style="endArrow=none;html=1;fontColor=#0F0F0F;rounded=0;" edge="1" parent="1">
                    <mxGeometry width="50" height="50" relative="1" as="geometry">
                        <mxPoint x="380" y="340" as="sourcePoint"/>
                        <mxPoint x="380" y="400" as="targetPoint"/>
                    </mxGeometry>
                </mxCell>
                <UserObject label="Set yourself up for success" link="#set-yourself-up-for-success" id="138">
                    <mxCell style="rounded=0;whiteSpace=wrap;html=1;fillColor=#982568;fontColor=#0F0F0F;fontStyle=1;opacity=50;" vertex="1" parent="1">
                        <mxGeometry x="20" y="291" width="130" height="50" as="geometry"/>
                    </mxCell>
                </UserObject>
                <UserObject label="Review your shareable data package" link="#review-your-shareable-data-package" id="139">
                    <mxCell style="rounded=0;whiteSpace=wrap;html=1;fillColor=#982568;fontColor=#0F0F0F;fontStyle=1;opacity=50;" vertex="1" parent="1">
                        <mxGeometry x="320" y="291" width="130" height="50" as="geometry"/>
                    </mxCell>
                </UserObject>
                <UserObject label="Identify resources that meet sharing requirements" link="#identify-resources-and-standard-data-package-metadata-that-meet-sharing-requirements" id="140">
                    <mxCell style="rounded=0;whiteSpace=wrap;html=1;fillColor=#982568;fontColor=#0F0F0F;fontStyle=1;opacity=50;" vertex="1" parent="1">
                        <mxGeometry x="120" y="461" width="130" height="50" as="geometry"/>
                    </mxCell>
                </UserObject>
                <UserObject label="Prepare Resource Tracker and Results Tracker(s)" link="#prepare-resource-and-results-trackers" id="141">
                    <mxCell style="rounded=0;whiteSpace=wrap;html=1;fillColor=#982568;fontColor=#0F0F0F;fontStyle=1;opacity=50;" vertex="1" parent="1">
                        <mxGeometry x="275" y="461" width="130" height="50" as="geometry"/>
                    </mxCell>
                </UserObject>
                <mxCell id="142" value="" style="endArrow=none;html=1;fontColor=#0F0F0F;rounded=0;" edge="1" parent="1">
                    <mxGeometry width="50" height="50" relative="1" as="geometry">
                        <mxPoint x="335" y="461" as="sourcePoint"/>
                        <mxPoint x="335" y="401" as="targetPoint"/>
                    </mxGeometry>
                </mxCell>
                <mxCell id="143" value="" style="endArrow=none;html=1;fontColor=#0F0F0F;rounded=0;" edge="1" parent="1">
                    <mxGeometry width="50" height="50" relative="1" as="geometry">
                        <mxPoint x="533" y="401" as="sourcePoint"/>
                        <mxPoint x="533" y="341" as="targetPoint"/>
                    </mxGeometry>
                </mxCell>
                <UserObject label="&lt;b&gt;Prepare other materials for submission&lt;/b&gt;" link="#prepare-other-materials-for-submission" id="145">
                    <mxCell style="swimlane;fontStyle=0;childLayout=stackLayout;horizontal=1;startSize=50;horizontalStack=0;resizeParent=1;resizeParentMax=0;resizeLast=0;collapsible=1;marginBottom=0;whiteSpace=wrap;html=1;rounded=0;shadow=0;glass=0;fillColor=#982568;gradientColor=none;gradientDirection=radial;opacity=50;swimlaneLine=1;" vertex="1" collapsed="1" parent="1">
                        <mxGeometry x="425" y="461" width="130" height="50" as="geometry">
                            <mxRectangle x="425" y="461" width="190" height="110" as="alternateBounds"/>
                        </mxGeometry>
                    </mxCell>
                </UserObject>
                <mxCell id="146" value="Overview Resource Tracker" style="text;strokeColor=default;fillColor=#FFFFFF;align=center;verticalAlign=middle;spacingLeft=4;spacingRight=4;overflow=hidden;points=[[0,0.5],[1,0.5]];portConstraint=eastwest;rotatable=0;whiteSpace=wrap;html=1;rounded=0;shadow=0;glass=0;" vertex="1" parent="145">
                    <mxGeometry y="50" width="190" height="30" as="geometry"/>
                </mxCell>
                <mxCell id="147" value="&lt;span style=&quot;font-weight: 400;&quot;&gt;README&lt;/span&gt;" style="text;strokeColor=default;fillColor=#FFFFFF;align=center;verticalAlign=middle;spacingLeft=4;spacingRight=4;overflow=hidden;points=[[0,0.5],[1,0.5]];portConstraint=eastwest;rotatable=0;whiteSpace=wrap;html=1;rounded=0;shadow=0;glass=0;fontStyle=1" vertex="1" parent="145">
                    <mxGeometry y="80" width="190" height="30" as="geometry"/>
                </mxCell>
                <mxCell id="148" value="" style="endArrow=none;html=1;fontColor=#0F0F0F;rounded=0;" edge="1" parent="1">
                    <mxGeometry width="50" height="50" relative="1" as="geometry">
                        <mxPoint x="490" y="461" as="sourcePoint"/>
                        <mxPoint x="490" y="401" as="targetPoint"/>
                    </mxGeometry>
                </mxCell>
                <UserObject label="Zip up your shareable data package" link="#zip-up-your-shareable-data-package" id="149">
                    <mxCell style="rounded=0;whiteSpace=wrap;html=1;fillColor=#982568;fontColor=#0F0F0F;fontStyle=1;opacity=50;" vertex="1" parent="1">
                        <mxGeometry x="470" y="291" width="130" height="50" as="geometry"/>
                    </mxCell>
                </UserObject>
                <UserObject label="&lt;font color=&quot;#ffffff&quot; style=&quot;font-size: 13px;&quot;&gt;&lt;b style=&quot;font-size: 13px;&quot;&gt;Create Open-Access By Date Shareable Data Package&lt;/b&gt;&lt;/font&gt;" id="144">
                    <mxCell style="shape=singleArrow;whiteSpace=wrap;html=1;arrowWidth=0.6;arrowSize=0.042105263157894736;fillColor=#532565;strokeColor=#532565;fontSize=13;labelBorderColor=none;" vertex="1" parent="1">
                        <mxGeometry x="40" y="381" width="540" height="40" as="geometry"/>
                    </mxCell>
                </UserObject>
            </root>
        </mxGraphModel>
    </diagram>
</mxfile>